# xmcd
# 
# Track frame offsets:
#     150
#     23158
#     45160
#     60835
#     79515
#     90472
#     106699
#     116664
#     125736
#     148000
#     162673
#     177508
# 
# Disc length: 2621
# 
# Revision: 2
# Processed by: cddbd v1.5.2PL0 Copyright (c) Steve Scherf et al.
# Submitted via: fre:ac v1.0.27
# 
DISCID=920a3b0c
DTITLE=Eddie Turner - Rise
DYEAR=2005
DGENRE=Blues
TTITLE0=Rise
TTITLE1=Ask Myself Why
TTITLE2=The River
TTITLE3=The Wind Cries Mary
TTITLE4=Resurrection
TTITLE5=It's Me
TTITLE6=Gangter Of Love
TTITLE7=Sin
TTITLE8=Play It Cool
TTITLE9=Privileged Life
TTITLE10=Confusion Illusion
TTITLE11=Secret
EXTD=
EXTT0=
EXTT1=
EXTT2=
EXTT3=
EXTT4=
EXTT5=
EXTT6=
EXTT7=
EXTT8=
EXTT9=
EXTT10=
EXTT11=
PLAYORDER=
